<svg xmlns="http://www.w3.org/2000/svg" viewBox="0 0 121.17 38.2"><defs><style>.cls-1{fill:#eff2f7;}</style></defs><g id="Layer_2" data-name="Layer 2"><g id="Layer_1-2" data-name="Layer 1"><path class="cls-1" d="M12.7,22.47C41.16,6.1,56.88,25.31,87.8,26.63,116.59,26.5,124.7,9.43,115,0c15.84,8.9.92,38.05-39.84,31C57.36,27.85,46.44,19,28.4,19.39,22.54,19.48,17.77,21,12.7,22.47Z"/><path class="cls-1" d="M36.48,13.35c15-8.89,35.66,1.07,49.44,4.56,7.6,1.95,22.76,3.91,27.64-2.28a6.52,6.52,0,0,1-1.29,2.27C107.57,23.44,97.38,24.63,90,24,72.79,22.59,55.73,10.18,36.48,13.35Z"/><path class="cls-1" d="M0,35.17c1.71-3.51,5.25-6.3,8.66-8.23,7.48-4,15.65-4.22,24-3.06,17.55,2.59,23.85,9.52,41.87,10.63,6.52.18,10.69-.63,14.4-1-13.16,5.93-23.08,5.68-35.2,2.07C42.26,32.26,14.92,20.62,0,35.17Z"/></g></g></svg>